<svg width="320" height="120" viewBox="0 0 320 120" fill="none" xmlns="http://www.w3.org/2000/svg">
  <defs>
    <filter id="grain" x="-20%" y="-20%" width="140%" height="140%">
      <feTurbulence type="fractalNoise" baseFrequency="0.85" numOctaves="2" seed="7" result="noise"/>
      <feColorMatrix in="noise" type="saturate" values="0"/>
      <feComponentTransfer>
        <feFuncA type="table" tableValues="0 0.08"/>
      </feComponentTransfer>
      <feBlend in2="SourceGraphic" mode="screen"/>
    </filter>
    <linearGradient id="pawFill" x1="0" y1="0" x2="1" y2="1">
      <stop offset="0%" stop-color="#8E4D22"/>
      <stop offset="100%" stop-color="#A85F2B"/>
    </linearGradient>
  </defs>

  <g filter="url(#grain)" fill="url(#pawFill)">
    <g transform="translate(10 10)">
      <ellipse cx="24" cy="38" rx="12" ry="18"/>
      <ellipse cx="60" cy="18" rx="12" ry="18"/>
      <ellipse cx="106" cy="18" rx="12" ry="18"/>
      <ellipse cx="142" cy="42" rx="12" ry="18"/>
      <path d="M82 40C63 40 42 54 34 76C30 87 33 101 47 104C60 107 67 100 82 98C97 100 104 107 117 104C131 101 134 87 130 76C122 54 101 40 82 40Z"/>
    </g>
    <g transform="translate(168 10)">
      <ellipse cx="24" cy="38" rx="12" ry="18"/>
      <ellipse cx="60" cy="18" rx="12" ry="18"/>
      <ellipse cx="106" cy="18" rx="12" ry="18"/>
      <ellipse cx="142" cy="42" rx="12" ry="18"/>
      <path d="M82 40C63 40 42 54 34 76C30 87 33 101 47 104C60 107 67 100 82 98C97 100 104 107 117 104C131 101 134 87 130 76C122 54 101 40 82 40Z"/>
    </g>
  </g>
</svg>
